<svg width="100" height="100" viewBox="0 0 100 100" fill="none" xmlns="http://www.w3.org/2000/svg">
<circle cx="50" cy="50" r="50" fill="#002976"/>
<path d="M37.3253 59.68L39.6773 54.848L39.5973 56.144L35.1493 47.472H38.5413L40.3653 51.36C40.4933 51.6373 40.616 51.92 40.7333 52.208C40.8506 52.4853 40.952 52.7787 41.0373 53.088L40.4773 53.248C40.5733 53.0347 40.68 52.7787 40.7973 52.48C40.9253 52.1813 41.0426 51.888 41.1493 51.6L42.8933 47.472H46.2693L42.0133 56.032L40.2853 59.68H37.3253ZM48.9606 59.52V47.472H51.7286L51.8886 49.36L51.2966 49.216C51.3712 48.864 51.5739 48.544 51.9046 48.256C52.2352 47.968 52.6512 47.7387 53.1526 47.568C53.6646 47.3867 54.2192 47.296 54.8166 47.296C55.6272 47.296 56.3419 47.488 56.9606 47.872C57.5899 48.2453 58.0752 48.7627 58.4166 49.424C58.7686 50.0853 58.9446 50.8533 58.9446 51.728C58.9446 52.5813 58.7686 53.344 58.4166 54.016C58.0646 54.6773 57.5686 55.2 56.9286 55.584C56.2992 55.9573 55.5739 56.144 54.7526 56.144C54.1766 56.144 53.6432 56.0533 53.1526 55.872C52.6619 55.68 52.2512 55.4347 51.9206 55.136C51.6006 54.8267 51.3872 54.4907 51.2806 54.128L51.9526 53.904V59.52H48.9606ZM53.9526 53.696C54.3792 53.696 54.7472 53.616 55.0566 53.456C55.3766 53.296 55.6166 53.072 55.7766 52.784C55.9472 52.4853 56.0326 52.1333 56.0326 51.728C56.0326 51.312 55.9472 50.96 55.7766 50.672C55.6166 50.3733 55.3819 50.144 55.0726 49.984C54.7632 49.824 54.3899 49.744 53.9526 49.744C53.5259 49.744 53.1526 49.824 52.8326 49.984C52.5232 50.1333 52.2832 50.3573 52.1126 50.656C51.9526 50.9547 51.8726 51.312 51.8726 51.728C51.8726 52.1333 51.9526 52.4853 52.1126 52.784C52.2832 53.072 52.5232 53.296 52.8326 53.456C53.1526 53.616 53.5259 53.696 53.9526 53.696ZM62.0699 56V44.16H64.9819V49.456L64.2619 49.696C64.3686 49.248 64.5926 48.8427 64.9339 48.48C65.2859 48.1173 65.7126 47.8293 66.2139 47.616C66.7153 47.4027 67.2486 47.296 67.8139 47.296C68.5393 47.296 69.1526 47.4453 69.6539 47.744C70.1659 48.032 70.5446 48.4427 70.7899 48.976C71.0459 49.4987 71.1739 50.112 71.1739 50.816V56H68.1979V51.312C68.1979 50.96 68.1393 50.672 68.0219 50.448C67.9046 50.2133 67.7286 50.0373 67.4939 49.92C67.2699 49.792 67.0033 49.7333 66.6939 49.744C66.4593 49.744 66.2406 49.7813 66.0379 49.856C65.8353 49.9307 65.6593 50.0373 65.5099 50.176C65.3606 50.3147 65.2433 50.48 65.1579 50.672C65.0833 50.864 65.0459 51.072 65.0459 51.296V56H63.5579C63.1419 56 62.8113 56 62.5659 56C62.3206 56 62.1553 56 62.0699 56ZM79.2638 56.16C78.1971 56.16 77.2691 55.9733 76.4798 55.6C75.7011 55.216 75.0985 54.6933 74.6718 54.032C74.2451 53.36 74.0318 52.5973 74.0318 51.744C74.0318 51.0827 74.1545 50.48 74.3998 49.936C74.6451 49.392 74.9865 48.9227 75.4238 48.528C75.8611 48.1333 76.3731 47.8293 76.9598 47.616C77.5465 47.4027 78.1811 47.296 78.8638 47.296C79.5465 47.296 80.1705 47.4027 80.7358 47.616C81.3011 47.8187 81.7918 48.1173 82.2078 48.512C82.6238 48.9067 82.9438 49.3707 83.1678 49.904C83.4025 50.4373 83.5091 51.0293 83.4878 51.68L83.4718 52.368H75.8558L75.4878 50.8H81.0878L80.7998 51.184V50.88C80.7891 50.6453 80.6931 50.4373 80.5118 50.256C80.3411 50.0747 80.1171 49.9307 79.8398 49.824C79.5625 49.7173 79.2585 49.664 78.9278 49.664C78.5011 49.664 78.1278 49.7333 77.8078 49.872C77.4878 50 77.2318 50.2027 77.0398 50.48C76.8585 50.7573 76.7678 51.0987 76.7678 51.504C76.7678 51.9307 76.8798 52.304 77.1038 52.624C77.3385 52.944 77.6691 53.1947 78.0958 53.376C78.5331 53.5573 79.0558 53.648 79.6638 53.648C80.1758 53.648 80.5971 53.5947 80.9278 53.488C81.2691 53.3707 81.5678 53.232 81.8238 53.072L83.1518 54.96C82.7571 55.2373 82.3465 55.4667 81.9198 55.648C81.4931 55.8293 81.0611 55.9573 80.6238 56.032C80.1865 56.1173 79.7331 56.16 79.2638 56.16ZM86.5699 56V47.472H89.3379L89.4979 50.432L88.7459 50.176C88.8953 49.6427 89.1406 49.1573 89.4819 48.72C89.8339 48.2827 90.2446 47.936 90.7139 47.68C91.1939 47.424 91.6953 47.296 92.2179 47.296C92.4953 47.296 92.7619 47.3227 93.0179 47.376C93.2739 47.4187 93.4979 47.4827 93.6899 47.568L92.8739 50.832C92.7246 50.7147 92.5006 50.6187 92.2019 50.544C91.9139 50.4693 91.6153 50.432 91.3059 50.432C91.0179 50.432 90.7619 50.48 90.5379 50.576C90.3246 50.6613 90.1433 50.784 89.9939 50.944C89.8446 51.0933 89.7326 51.2693 89.6579 51.472C89.5833 51.664 89.5459 51.8773 89.5459 52.112V56H86.5699Z" fill="white"/>
<path d="M47.0939 85.96C42.4219 85.96 38.1339 85.128 34.2299 83.464C30.3259 81.8 26.9339 79.432 24.0539 76.36C21.1739 73.224 18.9339 69.544 17.3339 65.32C15.7979 61.096 15.0299 56.456 15.0299 51.4C15.0299 46.6 15.8619 42.152 17.5259 38.056C19.2539 33.896 21.6219 30.248 24.6299 27.112C27.6379 23.976 31.1259 21.544 35.0939 19.816C39.0619 18.088 43.3499 17.224 47.9579 17.224C51.2219 17.224 54.3899 17.736 57.4619 18.76C60.5979 19.72 63.4139 21.096 65.9099 22.888C68.4699 24.616 70.5499 26.6 72.1499 28.84L65.2379 36.04C63.3819 34.184 61.4939 32.648 59.5739 31.432C57.7179 30.152 55.7979 29.192 53.8139 28.552C51.8939 27.912 49.9419 27.592 47.9579 27.592C44.8219 27.592 41.8779 28.2 39.1259 29.416C36.4379 30.568 34.0699 32.2 32.0219 34.312C30.0379 36.424 28.4699 38.952 27.3179 41.896C26.1659 44.776 25.5899 47.944 25.5899 51.4C25.5899 55.048 26.1339 58.376 27.2219 61.384C28.3739 64.328 29.9739 66.856 32.0219 68.968C34.0699 71.08 36.5019 72.712 39.3179 73.864C42.1979 74.952 45.3659 75.496 48.8219 75.496C50.9339 75.496 53.0139 75.208 55.0619 74.632C57.1099 74.056 59.0299 73.224 60.8219 72.136C62.6139 71.048 64.2459 69.768 65.7179 68.296L70.9019 76.744C69.4299 78.472 67.4139 80.04 64.8539 81.448C62.3579 82.856 59.5419 83.976 56.4059 84.808C53.3339 85.576 50.2299 85.96 47.0939 85.96Z" fill="white"/>
</svg>
